<svg xmlns="http://www.w3.org/2000/svg" version="1.1" xmlns:xlink="http://www.w3.org/1999/xlink" xmlns:svgjs="http://svgjs.dev/svgjs" width="1000" height="623" viewBox="0 0 1000 623"><g transform="matrix(1,0,0,1,-0.6060606060606233,0.2522267206477409)"><svg viewBox="0 0 396 247" data-background-color="#ffffff" preserveAspectRatio="xMidYMid meet" height="623" width="1000" xmlns="http://www.w3.org/2000/svg" xmlns:xlink="http://www.w3.org/1999/xlink"><g id="tight-bounds" transform="matrix(1,0,0,1,0.2400000000000091,-0.09999999999999432)"><svg viewBox="0 0 395.52 247.2" height="247.2" width="395.52"><g><svg></svg></g><g><svg viewBox="0 0 395.52 247.2" height="247.2" width="395.52"><g transform="matrix(1,0,0,1,114.75790716577539,47.215199999999996)"><svg viewBox="0 0 166.0041856684492 152.7696" height="152.7696" width="166.0041856684492"><g><svg viewBox="0 0 166.0041856684492 152.7696" height="152.7696" width="166.0041856684492"><g><svg viewBox="0 0 166.0041856684492 152.7696" height="152.7696" width="166.0041856684492"><g><svg viewBox="0 0 166.0041856684492 152.7696" height="152.7696" width="166.0041856684492"><g id="textblocktransform"><svg viewBox="0 0 166.0041856684492 152.7696" height="152.7696" width="166.0041856684492" id="textblock"><g><svg viewBox="0 0 166.0041856684492 152.7696" height="152.7696" width="166.0041856684492"><g transform="matrix(1,0,0,1,0,0)"><svg width="166.0041856684492" viewBox="1.350000023841858 -36.25 50.80000305175781 46.75" height="152.7696" data-palette-color="#ff0000"><path d="M15-26.4L20.6-26.4 20.6-19.65 15-19.65 15-9.6Q15-7.8 15.6-6.98 16.2-6.15 17.8-6.15L17.8-6.15 20.6-6.15 20.6-0.3Q19.4 0.1 17.5 0.35 15.6 0.6 14.2 0.6L14.2 0.6Q9.8 0.6 7.43-1 5.05-2.6 5.05-6.45L5.05-6.45 5.05-19.65 1.35-19.65 1.35-26.4 5.45-26.4 7.6-34.4 15-34.4 15-26.4ZM35.85 0L25.25 0 25.25-9.95 35.85-9.95 35.85 0ZM52.15-29.5L42.2-29.5 42.2-36.25 52.15-36.25 52.15-29.5ZM52.15 1.45Q52.15 6.25 49.97 8.38 47.8 10.5 43 10.5L43 10.5Q41.7 10.5 39.8 10.25 37.9 10 36.8 9.6L36.8 9.6 36.8 3.65 39.4 3.65Q42.2 3.65 42.2 0.45L42.2 0.45 42.2-26.4 52.15-26.4 52.15 1.45Z" opacity="1" transform="matrix(1,0,0,1,0,0)" fill="#ff0000" class="wordmark-text-0" data-fill-palette-color="primary" id="text-0"></path></svg></g></svg></g></svg></g></svg></g></svg></g></svg></g></svg></g><g><path d="M206.602 0c30.402 0 58.24 10.976 79.768 29.183l-11.147 0c-19.26-14.022-42.974-22.294-68.621-22.295-25.647 0-49.361 8.272-68.621 22.295l-11.147 0c21.528-18.206 49.366-29.183 79.768-29.183zM330.202 123.6c0 23.32-6.458 45.132-17.684 63.745l0-14.654c6.928-14.923 10.796-31.555 10.796-49.091 0-17.536-3.867-34.168-10.796-49.091v-14.654c11.226 18.612 17.684 40.424 17.684 63.745zM206.602 247.2c-30.402 0-58.24-10.976-79.768-29.183l11.147 0c19.26 14.022 42.974 22.294 68.621 22.295 25.647 0 49.361-8.272 68.621-22.295l11.147 0c-21.528 18.206-49.366 29.183-79.768 29.183z" fill="#ff0000" stroke="transparent" data-fill-palette-color="tertiary"></path></g></svg></g><defs></defs></svg><rect width="395.52" height="247.2" fill="none" stroke="none" visibility="hidden"></rect></g></svg></g></svg>